<svg xmlns="http://www.w3.org/2000/svg" width="56" height="1000" viewBox="0 0 56 1000" fill="none" preserveAspectRatio="none">
  <path d="M18 0C46 64 46 128 22 192C8 232 8 296 28 352C48 408 48 480 20 544C6 600 6 672 30 736C48 800 48 876 22 936C14 964 14 986 18 1000" stroke="#FFFFFF" stroke-opacity="0.24" stroke-width="10" stroke-linecap="round" stroke-linejoin="round"/>
  <path d="M18 0C46 64 46 128 22 192C8 232 8 296 28 352C48 408 48 480 20 544C6 600 6 672 30 736C48 800 48 876 22 936C14 964 14 986 18 1000" stroke="#EEF3FF" stroke-opacity="0.99" stroke-width="4.4" stroke-linecap="round" stroke-linejoin="round"/>
</svg>
